<svg width="103" height="40" viewBox="0 0 103 40" fill="none" xmlns="http://www.w3.org/2000/svg">
<g clip-path="url(#clip0_769_6493)">
<path d="M21.4184 40.0491H20.0001C8.95439 40.0491 0 31.0948 0 20.0489C0 9.00319 8.95439 0.0488281 20.0001 0.0488281C31.0459 0.0488281 40.0003 9.00319 40.0003 20.0489C40.0003 21.038 39.9284 22.0109 39.7894 22.9625H36.9898C37.1508 22.0162 37.2348 21.0429 37.2348 20.0489C37.2348 10.5305 29.5186 2.81428 20.0001 2.81428C10.4817 2.81428 2.76545 10.5305 2.76545 20.0489C2.76545 29.5674 10.4817 37.2836 20.0001 37.2836H30.2506C27.633 38.8439 24.6299 39.8246 21.4184 40.0491Z" fill="#4A5363"/>
<path d="M34.0822 34.3208H20.0002C12.1182 34.3208 5.72852 27.9311 5.72852 20.049C5.72852 12.167 12.1182 5.77734 20.0002 5.77734C27.8823 5.77734 34.2719 12.167 34.2719 20.049C34.2719 21.0467 34.1693 22.0214 33.974 22.9626H31.1347C31.3772 22.0331 31.5065 21.0569 31.5065 20.049C31.5065 13.6943 26.3549 8.54276 20.0002 8.54276C13.6455 8.54276 8.49398 13.6943 8.49398 20.049C8.49398 26.4038 13.6455 31.5553 20.0002 31.5553H36.4215C35.7255 32.5468 34.942 33.4723 34.0822 34.3208Z" fill="#4A5363"/>
<path d="M38.1438 28.5924H20.0003C15.2821 28.5924 11.457 24.7674 11.457 20.0491C11.457 15.3308 15.2821 11.5059 20.0003 11.5059C24.7186 11.5059 28.5436 15.3308 28.5436 20.0491C28.5436 21.0714 28.3636 22.0529 28.0335 22.9627H24.9911C25.4915 22.1078 25.7781 21.1134 25.7781 20.0491C25.7781 16.8581 23.1914 14.2713 20.0003 14.2713C16.8093 14.2713 14.2226 16.8581 14.2226 20.0491C14.2226 23.2401 16.8093 25.827 20.0003 25.827H39.2048C38.9183 26.7806 38.5627 27.7044 38.1438 28.5924Z" fill="#4A5363"/>
</g>
<path d="M62.4458 19.9923C62.4458 21.8033 62.1066 23.3545 61.4281 24.6457C60.7551 25.9315 59.8359 26.9164 58.6705 27.6003C57.5106 28.2842 56.1947 28.6262 54.7229 28.6262C53.2511 28.6262 51.9325 28.2842 50.7671 27.6003C49.6071 26.9109 48.6879 25.9233 48.0095 24.6375C47.3365 23.3463 47 21.7979 47 19.9923C47 18.1813 47.3365 16.6328 48.0095 15.3471C48.6879 14.0558 49.6071 13.0682 50.7671 12.3843C51.9325 11.7004 53.2511 11.3584 54.7229 11.3584C56.1947 11.3584 57.5106 11.7004 58.6705 12.3843C59.8359 13.0682 60.7551 14.0558 61.4281 15.3471C62.1066 16.6328 62.4458 18.1813 62.4458 19.9923ZM59.3846 19.9923C59.3846 18.7175 59.1848 17.6423 58.7854 16.7669C58.3915 15.886 57.8443 15.2212 57.144 14.7726C56.4437 14.3184 55.6366 14.0914 54.7229 14.0914C53.8092 14.0914 53.0021 14.3184 52.3018 14.7726C51.6015 15.2212 51.0516 15.886 50.6522 16.7669C50.2582 17.6423 50.0613 18.7175 50.0613 19.9923C50.0613 21.2671 50.2582 22.345 50.6522 23.2259C51.0516 24.1013 51.6015 24.7661 52.3018 25.2202C53.0021 25.6689 53.8092 25.8932 54.7229 25.8932C55.6366 25.8932 56.4437 25.6689 57.144 25.2202C57.8443 24.7661 58.3915 24.1013 58.7854 23.2259C59.1848 22.345 59.3846 21.2671 59.3846 19.9923Z" fill="#4A5363"/>
<path d="M67.2397 21.01V28.3964H64.2687V15.7902H67.1084V17.9323H67.2561C67.5461 17.2265 68.0084 16.6657 68.6431 16.2498C69.2832 15.834 70.0739 15.6261 71.015 15.6261C71.8849 15.6261 72.6427 15.8121 73.2883 16.1842C73.9394 16.5562 74.4428 17.0952 74.7984 17.801C75.1596 18.5068 75.3374 19.3631 75.3319 20.3698V28.3964H72.3609V20.8294C72.3609 19.9868 72.1421 19.3275 71.7044 18.8515C71.2721 18.3755 70.673 18.1375 69.907 18.1375C69.3872 18.1375 68.9249 18.2524 68.52 18.4822C68.1206 18.7065 67.806 19.0321 67.5762 19.4588C67.3518 19.8856 67.2397 20.4027 67.2397 21.01Z" fill="#4A5363"/>
<path d="M82.1057 28.618C81.1154 28.618 80.229 28.3636 79.4466 27.8547C78.6642 27.3459 78.0459 26.6072 77.5918 25.6388C77.1377 24.6704 76.9106 23.494 76.9106 22.1097C76.9106 20.7091 77.1404 19.5272 77.6 18.5643C78.0651 17.5958 78.6916 16.8654 79.4795 16.373C80.2673 15.8751 81.1455 15.6261 82.1139 15.6261C82.8526 15.6261 83.4599 15.7519 83.9359 16.0036C84.4119 16.2498 84.7895 16.548 85.0685 16.8982C85.3475 17.2429 85.5637 17.5685 85.7169 17.8749H85.84V11.5882H88.8192V28.3964H85.8974V26.4103H85.7169C85.5637 26.7167 85.3421 27.0422 85.0521 27.3869C84.7621 27.7261 84.3791 28.0161 83.9031 28.2569C83.4271 28.4976 82.828 28.618 82.1057 28.618ZM82.9347 26.1805C83.5639 26.1805 84.1001 26.0109 84.5432 25.6716C84.9864 25.3269 85.3229 24.8482 85.5527 24.2354C85.7825 23.6226 85.8974 22.9086 85.8974 22.0933C85.8974 21.2781 85.7825 20.5695 85.5527 19.9677C85.3284 19.3658 84.9946 18.898 84.5515 18.5643C84.1137 18.2305 83.5748 18.0636 82.9347 18.0636C82.2726 18.0636 81.72 18.236 81.2768 18.5807C80.8336 18.9254 80.4999 19.4014 80.2755 20.0087C80.0512 20.616 79.9391 21.3109 79.9391 22.0933C79.9391 22.8812 80.0512 23.5843 80.2755 24.2026C80.5053 24.8154 80.8418 25.2996 81.285 25.6552C81.7337 26.0054 82.2836 26.1805 82.9347 26.1805Z" fill="#4A5363"/>
<path d="M96.5594 28.6426C95.3283 28.6426 94.2614 28.3718 93.3586 27.8301C92.4558 27.2884 91.7555 26.5306 91.2576 25.5567C90.7652 24.5828 90.5189 23.4448 90.5189 22.1426C90.5189 20.8404 90.7652 19.6996 91.2576 18.7202C91.7555 17.7408 92.4558 16.9803 93.3586 16.4386C94.2614 15.8969 95.3283 15.6261 96.5594 15.6261C97.7905 15.6261 98.8574 15.8969 99.7602 16.4386C100.663 16.9803 101.361 17.7408 101.853 18.7202C102.351 19.6996 102.6 20.8404 102.6 22.1426C102.6 23.4448 102.351 24.5828 101.853 25.5567C101.361 26.5306 100.663 27.2884 99.7602 27.8301C98.8574 28.3718 97.7905 28.6426 96.5594 28.6426ZM96.5758 26.2625C97.2433 26.2625 97.8014 26.0792 98.2501 25.7127C98.6987 25.3406 99.0325 24.8427 99.2513 24.219C99.4757 23.5952 99.5878 22.9004 99.5878 22.1344C99.5878 21.3629 99.4757 20.6653 99.2513 20.0415C99.0325 19.4123 98.6987 18.9117 98.2501 18.5396C97.8014 18.1676 97.2433 17.9815 96.5758 17.9815C95.8919 17.9815 95.3228 18.1676 94.8687 18.5396C94.4201 18.9117 94.0836 19.4123 93.8592 20.0415C93.6404 20.6653 93.531 21.3629 93.531 22.1344C93.531 22.9004 93.6404 23.5952 93.8592 24.219C94.0836 24.8427 94.4201 25.3406 94.8687 25.7127C95.3228 26.0792 95.8919 26.2625 96.5758 26.2625Z" fill="#4A5363"/>
<defs>
<clipPath id="clip0_769_6493">
<rect width="40.0003" height="40.0003" fill="white"/>
</clipPath>
</defs>
</svg>
