<svg width="32" height="32" viewBox="0 0 32 32" fill="none" xmlns="http://www.w3.org/2000/svg">
<path d="M25.9973 18C25.9998 18.4077 25.8759 18.8062 25.6427 19.1407C25.4094 19.4751 25.0783 19.729 24.6948 19.8675L18.2473 22.25L15.8723 28.7025C15.7316 29.0846 15.4772 29.4143 15.1432 29.6473C14.8093 29.8802 14.4119 30.0051 14.0048 30.0051C13.5976 30.0051 13.2003 29.8802 12.8663 29.6473C12.5324 29.4143 12.2779 29.0846 12.1373 28.7025L9.74727 22.25L3.29477 19.875C2.91268 19.7344 2.58293 19.4799 2.35 19.146C2.11708 18.812 1.99219 18.4147 1.99219 18.0075C1.99219 17.6003 2.11708 17.203 2.35 16.869C2.58293 16.5351 2.91268 16.2806 3.29477 16.14L9.74727 13.75L12.1223 7.2975C12.2629 6.91541 12.5174 6.58566 12.8513 6.35273C13.1853 6.11981 13.5826 5.99492 13.9898 5.99492C14.3969 5.99492 14.7943 6.11981 15.1282 6.35273C15.4622 6.58566 15.7166 6.91541 15.8573 7.2975L18.2473 13.75L24.6998 16.125C25.0835 16.2647 25.4145 16.5202 25.6469 16.856C25.8793 17.1919 26.0017 17.5916 25.9973 18ZM18.9973 6H20.9973V8C20.9973 8.26522 21.1026 8.51957 21.2902 8.70711C21.4777 8.89464 21.7321 9 21.9973 9C22.2625 9 22.5168 8.89464 22.7044 8.70711C22.8919 8.51957 22.9973 8.26522 22.9973 8V6H24.9973C25.2625 6 25.5168 5.89464 25.7044 5.70711C25.8919 5.51957 25.9973 5.26522 25.9973 5C25.9973 4.73478 25.8919 4.48043 25.7044 4.29289C25.5168 4.10536 25.2625 4 24.9973 4H22.9973V2C22.9973 1.73478 22.8919 1.48043 22.7044 1.29289C22.5168 1.10536 22.2625 1 21.9973 1C21.7321 1 21.4777 1.10536 21.2902 1.29289C21.1026 1.48043 20.9973 1.73478 20.9973 2V4H18.9973C18.7321 4 18.4777 4.10536 18.2902 4.29289C18.1026 4.48043 17.9973 4.73478 17.9973 5C17.9973 5.26522 18.1026 5.51957 18.2902 5.70711C18.4777 5.89464 18.7321 6 18.9973 6ZM29.9973 10H28.9973V9C28.9973 8.73478 28.8919 8.48043 28.7044 8.29289C28.5168 8.10536 28.2625 8 27.9973 8C27.7321 8 27.4777 8.10536 27.2902 8.29289C27.1026 8.48043 26.9973 8.73478 26.9973 9V10H25.9973C25.7321 10 25.4777 10.1054 25.2902 10.2929C25.1026 10.4804 24.9973 10.7348 24.9973 11C24.9973 11.2652 25.1026 11.5196 25.2902 11.7071C25.4777 11.8946 25.7321 12 25.9973 12H26.9973V13C26.9973 13.2652 27.1026 13.5196 27.2902 13.7071C27.4777 13.8946 27.7321 14 27.9973 14C28.2625 14 28.5168 13.8946 28.7044 13.7071C28.8919 13.5196 28.9973 13.2652 28.9973 13V12H29.9973C30.2625 12 30.5168 11.8946 30.7044 11.7071C30.8919 11.5196 30.9973 11.2652 30.9973 11C30.9973 10.7348 30.8919 10.4804 30.7044 10.2929C30.5168 10.1054 30.2625 10 29.9973 10Z" fill="currentColor"/>
</svg>
